<svg width="101" height="100" viewBox="0 0 101 100" fill="none" xmlns="http://www.w3.org/2000/svg">
<g clip-path="url(#clip0_227_44529)">
<path d="M54.48 10.0075C46.6627 9.21521 39.2932 11.9722 33.9186 17.0042C32.2432 18.5716 30.1252 19.5512 27.8649 19.8946C18.9123 21.2672 11.633 28.6724 10.6606 38.2665C10.1715 42.9941 11.3057 47.7382 13.8858 51.7209C15.3426 53.961 15.9447 56.6673 15.6637 59.3433L15.6587 59.3921C14.2485 73.4032 24.6766 85.9393 38.966 87.3876C47.0757 88.2095 54.6795 85.2789 60.0067 80.0348C62.601 77.465 66.2558 76.2858 69.86 76.8682C70.1309 76.9154 70.4126 76.9539 70.6952 76.9825C80.7544 78.0021 90.0399 67.6121 91.4421 53.7779C92.6422 41.9367 87.6723 31.4146 79.9059 27.9822C77.6818 26.9968 75.8351 25.2995 74.614 23.1622C70.5035 16.014 63.2136 10.8927 54.48 10.0075Z" fill="url(#paint0_linear_227_44529)"/>
<g clip-path="url(#clip1_227_44529)">
<path d="M81.8827 53.3934C81.2004 53.3277 80.5125 53.3492 79.8357 53.4574C79.4122 53.5194 78.9921 53.6025 78.5769 53.7066C78.4463 53.3057 78.304 52.9086 78.1502 52.5159C77.9064 51.8839 77.6098 51.2736 77.2636 50.6914C77.2435 50.6576 77.2151 50.6295 77.181 50.6098C77.1469 50.5902 77.1083 50.5796 77.069 50.5791C77.0075 50.5773 76.9478 50.6 76.9031 50.6422C76.8583 50.6844 76.8322 50.7426 76.8304 50.8041L76.8304 50.8078C76.8224 51.4851 76.8714 52.1619 76.9769 52.8309C77.0412 53.2549 77.1183 53.6782 77.2092 54.0947C76.8032 54.2248 76.3983 54.37 75.9996 54.5266C75.3679 54.7704 74.7579 55.067 74.176 55.4132C74.1435 55.4348 74.1165 55.4636 74.097 55.4974C74.0775 55.5313 74.0662 55.5692 74.0639 55.6081C74.063 55.6386 74.0681 55.6689 74.0789 55.6974C74.0897 55.7259 74.106 55.752 74.1269 55.7741C74.1478 55.7963 74.1729 55.8141 74.2006 55.8266C74.2284 55.8391 74.2584 55.846 74.2888 55.8469L74.2925 55.847C74.9695 55.8551 75.6461 55.8062 76.3149 55.7007C76.7314 55.6385 77.1438 55.5617 77.5587 55.4738C77.6766 55.8855 77.8151 56.291 77.9736 56.6887C78.219 57.3289 78.545 57.9352 78.9436 58.493C78.9592 58.5142 78.9791 58.532 79.0019 58.5452C79.0248 58.5584 79.0501 58.5667 79.0763 58.5696C79.1273 58.575 79.1783 58.5602 79.2185 58.5284C79.2587 58.4966 79.2849 58.4504 79.2916 58.3995C79.3548 57.7169 79.3332 57.0291 79.2272 56.3518C79.1672 55.9344 79.0806 55.5243 78.9805 55.1125C79.3867 55.0006 79.7859 54.8646 80.176 54.7054C80.8151 54.4579 81.4209 54.1321 81.9797 53.7354C82.0102 53.7113 82.0329 53.6788 82.0451 53.6419C82.0573 53.605 82.0584 53.5653 82.0483 53.5278C82.0382 53.4902 82.0174 53.4565 81.9884 53.4306C81.9593 53.4048 81.9234 53.388 81.885 53.3824L81.8827 53.3934Z" fill="url(#paint1_linear_227_44529)"/>
</g>
</g>
<g clip-path="url(#clip2_227_44529)">
<path d="M51.5559 62.2574C48.4891 61.5628 45.0411 60.8767 43.0372 60.4811L41.3578 60.1663C41.1955 60.126 41.1063 60.0693 40.9602 60.1018C40.7252 60.7666 40.5795 61.4881 40.5067 62.1933C38.4985 71.7509 42.2417 80.6393 43.272 80.7924C44.2294 80.9619 51.2766 74.4154 53.3579 64.8415C53.5199 64.193 53.6494 63.3986 53.8114 62.75C53.6491 62.7096 53.5761 62.7259 53.4138 62.6855L51.5559 62.2574Z" fill="#FF6A43"/>
<path d="M45.1183 71.1947C45.7674 71.3563 49.6356 67.7383 51.4669 62.201L42.932 60.3518C42.3825 66.1393 44.5585 71.0898 45.1183 71.1947Z" fill="url(#paint2_linear_227_44529)"/>
<path d="M48.1874 57.1133C44.9746 56.4513 42.0296 55.9592 39.9442 54.51L39.4179 57.3067C39.1507 58.5146 39.8083 59.7461 40.9766 60.1747C41.1389 60.2151 42.9968 60.6432 42.9968 60.6432L51.4425 62.4358C51.4425 62.4358 53.1949 62.7343 53.6655 62.7825C54.9148 62.8869 55.9529 62.0431 56.2202 60.8353L56.7464 58.0386C54.321 58.5025 51.4002 57.7754 48.1874 57.1133ZM43.4455 24.4858C37.8233 23.6716 30.3729 36.6621 29.1096 42.6852C27.9273 48.3841 31.9677 49.321 37.1844 50.3786C36.7456 48.4094 36.85 45.7833 37.5788 42.1759C38.9881 36.1202 40.9734 30.2424 43.4455 24.4858ZM65.6592 29.2581C65.5885 35.4748 64.7878 41.8542 63.7031 47.9907C62.9743 51.5981 61.8963 53.9819 60.6557 55.6363C65.8887 56.7668 70.1885 57.4929 71.387 51.8669C72.6745 45.6087 71.1194 30.7208 65.6592 29.2581Z" fill="white"/>
<path d="M38.2446 86.4296C37.5878 87.2649 37.0933 88.1407 36.7773 89.1298C36.372 90.0622 36.129 91.035 35.959 91.9915C35.789 92.9481 35.6353 93.9776 35.5545 94.9908C35.4738 96.004 35.6283 97.0413 35.8559 98.0624C35.9209 98.3541 36.1319 98.6133 36.3267 98.7996C36.8785 99.2125 37.6978 99.1065 38.1843 98.5387C38.8411 97.7034 39.3356 96.8276 39.7246 95.8223C40.1299 94.8898 40.3729 93.917 40.5429 92.9605C40.7129 92.0039 40.8667 90.9745 40.9474 89.9613C41.0281 88.948 40.8736 87.9107 40.6461 86.8896C40.4836 86.1603 39.7857 85.7799 39.0557 85.9426C38.7799 86.0806 38.5041 86.2186 38.2446 86.4296ZM49.0737 83.7867C48.725 83.941 48.3762 84.0953 48.0599 84.3954C47.8734 84.5901 47.7031 84.8577 47.6059 85.109C47.5249 85.4333 47.5899 85.725 47.6549 86.0168C47.8092 86.3652 48.0365 86.6973 48.3367 87.0132C48.994 87.5557 49.8784 87.7414 50.6652 87.4895C51.0302 87.4082 51.4357 87.1647 51.679 86.8808C51.8655 86.6861 52.0358 86.4185 52.133 86.1672C52.214 85.8429 52.149 85.5512 52.084 85.2595C51.9298 84.9111 51.7025 84.5789 51.4022 84.2631C50.8179 83.7043 49.8606 83.5348 49.0737 83.7867ZM32.1007 79.148C32.6445 79.8689 33.5856 79.9654 34.3237 79.4947C34.786 79.162 35.2157 78.6835 35.4833 78.1645C35.9778 77.2888 36.1883 76.1701 36.1068 75.1165C36.0497 74.5168 35.8467 73.9496 35.5707 73.3986L35.4652 73.269C34.9376 72.621 33.9803 72.4516 33.2422 72.9223C32.7799 73.255 32.3502 73.7335 32.0827 74.2525C31.6044 75.2011 31.3776 76.2469 31.3861 77.3168C31.4432 77.9165 31.6462 78.4837 31.9222 79.0346C32.0845 79.075 32.1007 79.148 32.1007 79.148Z" fill="#FF8B6C"/>
<path d="M63.7841 47.6667C64.9419 41.514 65.5561 35.3293 65.6268 29.1126C65.9463 16.1035 64.5215 2.48801 59.8483 1.4624C55.1752 0.436783 48.3328 12.373 43.413 24.3402C40.9409 30.0968 39.0286 35.9584 37.5463 42.0303C36.8176 45.6377 36.7131 48.2639 37.1519 50.2331C37.4527 51.9268 38.4106 53.4741 39.855 54.4537C41.9404 55.9028 44.8854 56.3949 48.0982 57.0569C51.311 57.719 54.2318 58.4461 56.6735 58.0551C58.3689 57.7539 59.8287 56.7396 60.8098 55.2961C61.9936 53.7308 62.9824 51.2904 63.7841 47.6667Z" fill="url(#paint3_linear_227_44529)"/>
<path d="M55.4107 22.8147C58.7857 23.5171 61.7467 23.3932 62.5242 20.0046C63.3748 16.5998 61.3048 13.1567 57.9135 12.3814C54.5222 11.606 51.0589 13.6026 50.2814 16.9912L50.2977 17.0641L50.2167 17.3884C49.3499 20.7203 51.9464 22.0556 55.4107 22.8147Z" fill="url(#paint4_linear_227_44529)"/>
<path d="M51.3334 52.6614C52.3062 50.8369 53.0842 48.8263 53.554 46.8077C54.0237 44.7891 54.3312 42.7302 54.655 40.7442C54.9787 38.7581 55.197 36.6425 55.5045 34.5836C55.7389 32.5409 55.8842 30.4415 55.8834 28.3747C55.8181 27.394 55.039 26.649 54.1142 26.6254C53.4247 26.626 52.8894 26.9749 52.5651 27.5831C51.7546 29.4479 51.0495 31.4423 50.4175 33.4205C49.8585 35.3824 49.1535 37.3768 48.6675 39.3224C48.1977 41.341 47.6387 43.3029 47.2582 45.3781C46.8047 47.4696 46.7325 49.5527 46.8955 51.6599C46.9283 52.4947 47.3991 53.2319 48.1536 53.5231C49.1517 54.2193 50.4658 53.9265 51.1631 52.929C51.2361 52.9127 51.2929 52.8235 51.3334 52.6614Z" fill="white"/>
</g>
<g clip-path="url(#clip3_227_44529)">
<path d="M86.1379 38.8113C85.9746 38.6943 85.7971 38.5987 85.6096 38.5267C85.4931 38.4802 85.3743 38.4396 85.2538 38.405C85.2796 38.2841 85.3018 38.1625 85.3205 38.0404C85.3516 37.8443 85.3661 37.646 85.3638 37.4476C85.3637 37.436 85.3606 37.4247 85.3549 37.4147C85.3491 37.4047 85.3409 37.3964 85.331 37.3905C85.3157 37.381 85.2972 37.378 85.2797 37.3821C85.2621 37.3862 85.2469 37.3972 85.2374 37.4125L85.2369 37.4134C85.1353 37.5839 85.0483 37.7627 84.9768 37.9479C84.9308 38.0648 84.8882 38.1835 84.85 38.3024C84.728 38.2757 84.604 38.2531 84.4799 38.2342C84.2839 38.2032 84.0857 38.1888 83.8873 38.191C83.8759 38.1917 83.8648 38.1951 83.8549 38.2008C83.845 38.2065 83.8365 38.2144 83.8302 38.224C83.8255 38.2316 83.8223 38.24 83.8209 38.2488C83.8194 38.2576 83.8198 38.2666 83.8218 38.2753C83.8238 38.284 83.8276 38.2922 83.8328 38.2995C83.838 38.3067 83.8446 38.3129 83.8522 38.3176L83.8531 38.3181C84.0235 38.4197 84.2022 38.5067 84.3873 38.5782C84.502 38.6236 84.6179 38.6647 84.736 38.7034C84.7054 38.8251 84.6809 38.9482 84.6627 39.0724C84.6309 39.2707 84.6244 39.4724 84.6435 39.6723C84.6444 39.68 84.6468 39.6874 84.6506 39.6941C84.6545 39.7008 84.6597 39.7067 84.6659 39.7113C84.678 39.7201 84.6932 39.7239 84.708 39.7217C84.7229 39.7196 84.7363 39.7117 84.7455 39.6998C84.8618 39.536 84.9574 39.3584 85.03 39.1711C85.0761 39.0565 85.1144 38.9398 85.1495 38.8207C85.269 38.852 85.3902 38.8762 85.5125 38.8931C85.7108 38.9243 85.9123 38.9307 86.1123 38.9122C86.1236 38.9106 86.1341 38.9057 86.1426 38.8981C86.1511 38.8905 86.1572 38.8806 86.1602 38.8696C86.1631 38.8586 86.1628 38.847 86.1593 38.8362C86.1557 38.8254 86.149 38.8159 86.1401 38.8088L86.1379 38.8113Z" fill="url(#paint5_linear_227_44529)"/>
</g>
<g clip-path="url(#clip4_227_44529)">
<path d="M26.6214 31.1362C26.2153 30.9841 25.7914 30.8843 25.3601 30.8394C25.0911 30.8078 24.8207 30.7897 24.5499 30.7852C24.5359 30.5187 24.5141 30.2527 24.4845 29.9875C24.4393 29.5613 24.3582 29.1397 24.2422 28.7271C24.2354 28.7032 24.2226 28.6813 24.205 28.6637C24.1874 28.6461 24.1656 28.6333 24.1417 28.6266C24.1044 28.6154 24.0642 28.6194 24.0299 28.6379C23.9957 28.6563 23.9701 28.6876 23.9589 28.7249L23.9583 28.7271C23.8423 29.1397 23.7612 29.5613 23.7159 29.9875C23.6856 30.2571 23.6633 30.5285 23.6505 30.7979C23.381 30.8107 23.1098 30.833 22.8404 30.8633C22.4144 30.9087 21.993 30.9898 21.5806 31.1059C21.5572 31.1137 21.5359 31.1269 21.5185 31.1444C21.5011 31.1619 21.4879 31.1832 21.4801 31.2066C21.4745 31.2251 21.4727 31.2444 21.4746 31.2636C21.4766 31.2828 21.4822 31.3014 21.4914 31.3184C21.5005 31.3354 21.5129 31.3504 21.5278 31.3626C21.5427 31.3747 21.5599 31.3839 21.5784 31.3894L21.5806 31.3901C21.993 31.5061 22.4144 31.5872 22.8404 31.6325C23.1052 31.6629 23.3698 31.6836 23.6377 31.698C23.6423 31.9689 23.6603 32.2394 23.692 32.5085C23.7369 32.9399 23.8366 33.3639 23.9886 33.7702C23.9947 33.7857 24.0039 33.7998 24.0157 33.8116C24.0275 33.8235 24.0416 33.8327 24.0571 33.8388C24.0874 33.8504 24.121 33.8497 24.1508 33.8369C24.1806 33.8241 24.2042 33.8001 24.2166 33.7702C24.3673 33.3634 24.4669 32.9395 24.5133 32.5082C24.5451 32.2434 24.5595 31.9785 24.5659 31.7105C24.8325 31.7087 25.0987 31.6912 25.3633 31.6579C25.7944 31.6115 26.218 31.5118 26.6246 31.3611C26.6472 31.3513 26.6664 31.3352 26.6799 31.3146C26.6934 31.2941 26.7006 31.27 26.7006 31.2455C26.7006 31.2209 26.6934 31.1968 26.6799 31.1763C26.6664 31.1557 26.6472 31.1396 26.6246 31.1298L26.6214 31.1362Z" fill="url(#paint6_linear_227_44529)"/>
</g>
<defs>
<linearGradient id="paint0_linear_227_44529" x1="63.2338" y1="-40.0023" x2="37.5196" y2="92.3105" gradientUnits="userSpaceOnUse">
<stop stop-color="#021529"/>
<stop offset="1" stop-color="#08407A"/>
</linearGradient>
<linearGradient id="paint1_linear_227_44529" x1="76.9834" y1="50.592" x2="79.1256" y2="58.5699" gradientUnits="userSpaceOnUse">
<stop stop-color="#FFB400"/>
<stop offset="1" stop-color="#FFF4CC"/>
</linearGradient>
<linearGradient id="paint2_linear_227_44529" x1="46.3098" y1="59.599" x2="48.72" y2="70.4151" gradientUnits="userSpaceOnUse">
<stop stop-color="#FFB400"/>
<stop offset="1" stop-color="#FFF4CC"/>
</linearGradient>
<linearGradient id="paint3_linear_227_44529" x1="45.1011" y1="4.48463" x2="57.0228" y2="57.9831" gradientUnits="userSpaceOnUse">
<stop stop-color="#3CD181"/>
<stop offset="1" stop-color="#2D9FD0"/>
</linearGradient>
<linearGradient id="paint4_linear_227_44529" x1="59.2243" y1="10.0777" x2="58.6312" y2="23.5417" gradientUnits="userSpaceOnUse">
<stop stop-color="#021529"/>
<stop offset="1" stop-color="#043669"/>
</linearGradient>
<linearGradient id="paint5_linear_227_44529" x1="85.3074" y1="37.3812" x2="84.6784" y2="39.7186" gradientUnits="userSpaceOnUse">
<stop stop-color="#FFB400"/>
<stop offset="1" stop-color="#FFF4CC"/>
</linearGradient>
<linearGradient id="paint6_linear_227_44529" x1="24.0872" y1="28.6204" x2="24.0872" y2="33.847" gradientUnits="userSpaceOnUse">
<stop stop-color="#FFB400"/>
<stop offset="1" stop-color="#FFF4CC"/>
</linearGradient>
<clipPath id="clip0_227_44529">
<rect width="78.5598" height="81.9339" fill="white" transform="translate(6.01904 84.061) rotate(-84.2125)"/>
</clipPath>
<clipPath id="clip1_227_44529">
<rect width="8.26065" height="8.26065" fill="white" transform="translate(72.9944 51.6631) rotate(-15.0304)"/>
</clipPath>
<clipPath id="clip2_227_44529">
<rect width="47.2714" height="90.6381" fill="white" transform="translate(16.4341 10.907) rotate(-12.5626)"/>
</clipPath>
<clipPath id="clip3_227_44529">
<rect width="2.42061" height="2.42061" fill="white" transform="translate(84.1387 37.0667) rotate(15.0621)"/>
</clipPath>
<clipPath id="clip4_227_44529">
<rect width="5.22675" height="5.22674" fill="white" transform="translate(21.4739 28.6204)"/>
</clipPath>
</defs>
</svg>
